
<svg xmlns="http://www.w3.org/2000/svg" width="120" height="40" viewBox="0 0 120 40" fill="none">
  <path d="M20 10C14.4772 10 10 14.4772 10 20C10 25.5228 14.4772 30 20 30C25.5228 30 30 25.5228 30 20C30 14.4772 25.5228 10 20 10ZM8 20C8 13.3726 13.3726 8 20 8C26.6274 8 32 13.3726 32 20C32 26.6274 26.6274 32 20 32C13.3726 32 8 26.6274 8 20Z" fill="url(#paint0_linear)"/>
  <path d="M20 17C18.3431 17 17 18.3431 17 20C17 21.6569 18.3431 23 20 23C21.6569 23 23 21.6569 23 20C23 18.3431 21.6569 17 20 17ZM15 20C15 17.2386 17.2386 15 20 15C22.7614 15 25 17.2386 25 20C25 22.7614 22.7614 25 20 25C17.2386 25 15 22.7614 15 20Z" fill="url(#paint1_linear)"/>
  <path d="M42.4922 26.5V14.1875H45.2422L45.4062 15.7344C45.8021 15.2135 46.2812 14.8125 46.8438 14.5312C47.4062 14.25 48.0208 14.1094 48.6875 14.1094C50.0208 14.1094 51.0469 14.5729 51.7656 15.5C52.4844 16.4271 52.8438 17.7292 52.8438 19.4062V26.5H49.7188V19.8125C49.7188 18.9062 49.5365 18.2344 49.1719 17.7969C48.8177 17.349 48.2812 17.125 47.5625 17.125C46.9583 17.125 46.4427 17.3021 46.0156 17.6562C45.599 18 45.2839 18.4635 45.0703 19.0469V26.5H42.4922Z" fill="url(#paint2_linear)"/>
  <path d="M60.7109 26.6875C59.763 26.6875 58.9115 26.5104 58.1562 26.1562C57.4115 25.7917 56.8151 25.2812 56.3672 24.625C55.9193 23.9688 55.6953 23.1927 55.6953 22.2969C55.6953 21.4844 55.8567 20.7969 56.1797 20.2344C56.5026 19.6719 56.9453 19.2135 57.5078 18.8594C58.0703 18.5052 58.724 18.2448 59.4688 18.0781C60.2135 17.9115 61.0052 17.8073 61.8438 17.7656C62.7396 17.7031 63.4323 17.6406 63.9219 17.5781C64.4219 17.5052 64.7761 17.3958 64.9844 17.25C65.1927 17.1042 65.2969 16.8802 65.2969 16.5781V16.5C65.2969 15.8021 65.1016 15.2656 64.7109 14.8906C64.3307 14.5156 63.7656 14.3281 63.0156 14.3281C62.2031 14.3281 61.5677 14.5 61.1094 14.8438C60.6615 15.1875 60.3646 15.5781 60.2188 16.0156L57.4219 15.5938C57.651 14.7188 58.0391 13.9948 58.5859 13.4219C59.138 12.839 59.8151 12.4062 60.6172 12.125C61.4193 11.8333 62.3125 11.6875 63.2969 11.6875C63.974 11.6875 64.6328 11.7604 65.2734 11.9062C65.9193 12.0521 66.4974 12.2917 67.0078 12.625C67.5234 12.9479 67.9375 13.3854 68.25 13.9375C68.5625 14.4792 68.7188 15.151 68.7188 15.9531V26.5H65.8438L65.6094 24.5938C65.276 25.1562 64.7865 25.6198 64.1406 25.9844C63.5 26.3385 62.1797 26.6875 60.7109 26.6875ZM61.6172 24.2344C62.2995 24.2344 62.8776 24.1198 63.3516 23.8906C63.8359 23.6615 64.2109 23.3594 64.4766 22.9844C64.7526 22.599 64.9323 22.1875 65.0156 21.75V19.2969C64.901 19.3802 64.7109 19.4583 64.4453 19.5312C64.1901 19.6042 63.901 19.6667 63.5781 19.7188C63.2552 19.7708 62.9323 19.8177 62.6094 19.8594C62.2865 19.901 61.9948 19.9375 61.7344 19.9688C61.2031 20.0312 60.7474 20.1302 60.3672 20.2656C59.987 20.401 59.6953 20.599 59.4922 20.8594C59.2891 21.1094 59.1875 21.4375 59.1875 21.8438C59.1875 22.4167 59.3932 22.849 59.8047 23.1406C60.2266 23.4323 60.8047 23.5781 61.5391 23.5781C61.5599 23.5781 61.5807 23.5781 61.6016 23.5781C61.6328 23.5781 61.625 23.5885 61.6172 23.599V24.2344Z" fill="url(#paint3_linear)"/>
  <path d="M82.3984 26.5V14.1875H85.1484L85.3125 15.7344C85.7083 15.2135 86.1875 14.8125 86.75 14.5312C87.3125 14.25 87.9271 14.1094 88.5938 14.1094C89.9271 14.1094 90.9531 14.5729 91.6719 15.5C92.3906 16.4271 92.75 17.7292 92.75 19.4062V26.5H89.625V19.8125C89.625 18.9062 89.4427 18.2344 89.0781 17.7969C88.724 17.349 88.1875 17.125 87.4688 17.125C86.8646 17.125 86.349 17.3021 85.9219 17.6562C85.5052 18 85.1901 18.4635 84.9766 19.0469V26.5H82.3984Z" fill="url(#paint4_linear)"/>
  <path d="M101.336 26.8281C100.174 26.8281 99.1719 26.5573 98.3281 26.0156C97.4844 25.474 96.8307 24.7083 96.3672 23.7188C95.9036 22.7292 95.6719 21.5677 95.6719 20.2344C95.6719 18.9115 95.8984 17.7552 96.3516 16.7656C96.8047 15.776 97.4583 15.0052 98.3125 14.4531C99.1667 13.901 100.174 13.625 101.336 13.625C102.445 13.625 103.315 13.8906 103.945 14.4219C104.586 14.9531 105.044 15.625 105.32 16.4375V9.875H108V26.5H105.25L105.102 23.5781C104.815 24.5156 104.31 25.2656 103.586 25.8281C102.862 26.3281 102.164 26.3281 101.336 26.8281ZM102.203 24.0938C103.031 24.0938 103.674 23.6979 104.133 22.9062C104.602 22.1146 104.836 21.1094 104.836 19.8906C104.836 18.7031 104.602 17.7188 104.133 16.9375C103.674 16.1562 103.031 15.7656 102.203 15.7656C101.375 15.7656 100.727 16.1562 100.258 16.9375C99.7995 17.7188 99.5703 18.7031 99.5703 19.8906C99.5703 21.1094 99.7995 22.1146 100.258 22.9062C100.727 23.6979 101.375 24.0938 102.203 24.0938Z" fill="url(#paint5_linear)"/>
  <defs>
    <linearGradient id="paint0_linear" x1="10" y1="20" x2="32" y2="20" gradientUnits="userSpaceOnUse">
      <stop stop-color="#3B82F6"/>
      <stop offset="1" stop-color="#8B5CF6"/>
    </linearGradient>
    <linearGradient id="paint1_linear" x1="15" y1="20" x2="25" y2="20" gradientUnits="userSpaceOnUse">
      <stop stop-color="#3B82F6"/>
      <stop offset="1" stop-color="#8B5CF6"/>
    </linearGradient>
    <linearGradient id="paint2_linear" x1="41" y1="20" x2="70" y2="20" gradientUnits="userSpaceOnUse">
      <stop stop-color="#3B82F6"/>
      <stop offset="1" stop-color="#8B5CF6"/>
    </linearGradient>
    <linearGradient id="paint3_linear" x1="41" y1="20" x2="70" y2="20" gradientUnits="userSpaceOnUse">
      <stop stop-color="#3B82F6"/>
      <stop offset="1" stop-color="#8B5CF6"/>
    </linearGradient>
    <linearGradient id="paint4_linear" x1="41" y1="20" x2="70" y2="20" gradientUnits="userSpaceOnUse">
      <stop stop-color="#3B82F6"/>
      <stop offset="1" stop-color="#8B5CF6"/>
    </linearGradient>
    <linearGradient id="paint5_linear" x1="41" y1="20" x2="70" y2="20" gradientUnits="userSpaceOnUse">
      <stop stop-color="#3B82F6"/>
      <stop offset="1" stop-color="#8B5CF6"/>
    </linearGradient>
  </defs>
</svg>
